<svg width="48" height="49" viewBox="0 0 48 49" fill="none" xmlns="http://www.w3.org/2000/svg">
<rect width="48" height="49" fill="#1E1E1E"/>
<rect width="48" height="49" rx="12" fill="#192526"/>
<path d="M21.6011 15.9795H25.5493C27.4632 15.9795 28.7981 15.9818 29.8052 16.1172C30.7835 16.2487 31.3014 16.4894 31.6704 16.8584C32.0394 17.2274 32.2801 17.7453 32.4116 18.7236C32.547 19.7308 32.5493 21.0656 32.5493 22.9795V26.9277C32.5493 28.8416 32.547 30.1765 32.4116 31.1836C32.2801 32.1619 32.0394 32.6798 31.6704 33.0488C31.3014 33.4178 30.7835 33.6585 29.8052 33.79C28.7981 33.9254 27.4632 33.9277 25.5493 33.9277H21.6011C19.6872 33.9277 18.3523 33.9254 17.3452 33.79C16.3669 33.6585 15.849 33.4178 15.48 33.0488C15.111 32.6798 14.8703 32.1619 14.7388 31.1836C14.6034 30.1765 14.6011 28.8416 14.6011 26.9277V22.9795C14.6011 21.0656 14.6034 19.7308 14.7388 18.7236C14.8703 17.7453 15.111 17.2274 15.48 16.8584C15.849 16.4894 16.3669 16.2487 17.3452 16.1172C18.3523 15.9818 19.6872 15.9795 21.6011 15.9795Z" stroke="#15B981" stroke-width="2"/>
<path d="M17.1424 26.7225L15.4146 28.308V17.6992H30.8291V29.4868C30.0029 29.4868 29.2068 29.1769 28.5981 28.6183L27.9722 28.044L27.9722 28.044C27.5023 27.6128 27.2674 27.3972 27.0203 27.2724C26.4535 26.9864 25.7846 26.9864 25.2179 27.2724C24.9708 27.3972 24.7358 27.6128 24.2659 28.044L24.2659 28.044L24.154 28.1466L24.154 28.1466C23.7444 28.5225 23.5396 28.7105 23.3345 28.7778C23.0023 28.887 22.6371 28.8146 22.3716 28.587C22.2078 28.4465 22.0882 28.1905 21.8491 27.6785C21.3387 26.5857 21.0835 26.0393 20.7245 25.7489C20.2123 25.3346 19.5289 25.1992 18.8974 25.3867C18.4548 25.5182 18.0173 25.9196 17.1424 26.7225Z" fill="#15B981" stroke="#15B981" stroke-width="2"/>
<circle cx="26.7487" cy="21.78" r="1.3601" fill="#192526" stroke="#192526" stroke-width="2" stroke-linecap="round"/>
</svg>
