<svg width="7767" height="2373" viewBox="0 0 7767 2373" fill="none" xmlns="http://www.w3.org/2000/svg">
<rect width="7767" height="2373" fill="#1E1E1E"/>
<path d="M1118.75 573.759L246.875 437.488L231.25 516.511L225 605.564V697.797L231.25 783.669L237.5 860L1118.75 809.113L1125 723.241V631.008L1118.75 573.759Z" fill="#DF1E5A"/>
<path d="M658.688 934.934L1312.59 839.343L1324.31 894.776L1329 957.245V1021.94L1324.31 1082.18L1314.94 1159L658.688 1138.64L654 1039.79V975.093L658.688 934.934Z" fill="#E273C1"/>
<path d="M176.18 1479.06L185.449 1548L948.641 1446.23L954.82 1419.96L961 1354.3V1245.96L948.641 1200H185.449L176.18 1262.38L170 1364.15L176.18 1479.06Z" fill="#21B159"/>
<path d="M0 1528H14" stroke="black"/>
<path d="M466.082 1763.43L472.247 1807H1347.59L1363 1673.18V1595.38L1359.92 1508.24L1350.67 1446L1178.07 1474.01L472.247 1579.82L466.082 1612.42L463 1673.18L466.082 1763.43Z" fill="#36C5EF"/>
<path d="M2055 1787C1939 1787 1837.67 1759.67 1751 1705C1665.67 1649 1607 1573.67 1575 1479L1771 1385C1799 1446.33 1837.67 1494.33 1887 1529C1937.67 1563.67 1993.67 1581 2055 1581C2103 1581 2141 1570.33 2169 1549C2197 1527.67 2211 1499.67 2211 1465C2211 1443.67 2205 1426.33 2193 1413C2182.33 1398.33 2167 1386.33 2147 1377C2128.33 1366.33 2107.67 1357.67 2085 1351L1907 1301C1815 1274.33 1745 1233.67 1697 1179C1650.33 1124.33 1627 1059.67 1627 985C1627 918.333 1643.67 860.333 1677 811C1711.67 760.333 1759 721 1819 693C1880.33 665 1950.33 651 2029 651C2131.67 651 2222.33 675.667 2301 725C2379.67 774.333 2435.67 843.667 2469 933L2269 1027C2250.33 977.667 2219 938.333 2175 909C2131 879.667 2081.67 865 2027 865C1983 865 1948.33 875 1923 895C1897.67 915 1885 941 1885 973C1885 993 1890.33 1010.33 1901 1025C1911.67 1039.67 1926.33 1051.67 1945 1061C1965 1070.33 1987.67 1079 2013 1087L2187 1139C2276.33 1165.67 2345 1205.67 2393 1259C2442.33 1312.33 2467 1377.67 2467 1455C2467 1520.33 2449.67 1578.33 2415 1629C2380.33 1678.33 2332.33 1717 2271 1745C2209.67 1773 2137.67 1787 2055 1787ZM3064.34 1775C2941.68 1775 2846.34 1741.67 2778.34 1675C2711.68 1607 2678.34 1511.67 2678.34 1389V909H2490.34V675H2510.34C2563.68 675 2605.01 661 2634.34 633C2663.68 605 2678.34 564.333 2678.34 511V427H2940.34V675H3190.34V909H2940.34V1375C2940.34 1411 2946.34 1441.67 2958.34 1467C2971.68 1492.33 2991.68 1511.67 3018.34 1525C3046.34 1538.33 3081.68 1545 3124.34 1545C3133.68 1545 3144.34 1544.33 3156.34 1543C3169.68 1541.67 3182.34 1540.33 3194.34 1539V1763C3175.68 1765.67 3154.34 1768.33 3130.34 1771C3106.34 1773.67 3084.34 1775 3064.34 1775ZM3620.61 1787C3544.61 1787 3478.61 1774.33 3422.61 1749C3366.61 1723.67 3323.28 1687.67 3292.61 1641C3261.94 1593 3246.61 1537.67 3246.61 1475C3246.61 1415 3259.94 1361.67 3286.61 1315C3313.28 1267 3354.61 1227 3410.61 1195C3466.61 1163 3537.28 1140.33 3622.61 1127L3978.61 1069V1269L3672.61 1321C3620.61 1330.33 3581.94 1347 3556.61 1371C3531.28 1395 3518.61 1426.33 3518.61 1465C3518.61 1502.33 3532.61 1532.33 3560.61 1555C3589.94 1576.33 3625.94 1587 3668.61 1587C3723.28 1587 3771.28 1575.67 3812.61 1553C3855.28 1529 3887.94 1496.33 3910.61 1455C3934.61 1413.67 3946.61 1368.33 3946.61 1319V1039C3946.61 992.333 3927.94 953.667 3890.61 923C3854.61 891 3806.61 875 3746.61 875C3690.61 875 3640.61 890.333 3596.61 921C3553.94 950.333 3522.61 989.667 3502.61 1039L3288.61 935C3309.94 877.667 3343.28 828.333 3388.61 787C3435.28 744.333 3489.94 711 3552.61 687C3615.28 663 3683.28 651 3756.61 651C3845.94 651 3924.61 667.667 3992.61 701C4060.61 733 4113.28 778.333 4150.61 837C4189.28 894.333 4208.61 961.667 4208.61 1039V1763H3960.61V1577L4016.61 1573C3988.61 1619.67 3955.28 1659 3916.61 1691C3877.94 1721.67 3833.94 1745.67 3784.61 1763C3735.28 1779 3680.61 1787 3620.61 1787ZM4878.77 2203C4797.43 2203 4722.1 2189.67 4652.77 2163C4583.43 2136.33 4523.43 2099 4472.77 2051C4423.43 2004.33 4387.43 1949 4364.77 1885L4608.77 1793C4624.77 1843.67 4656.1 1884.33 4702.77 1915C4750.77 1947 4809.43 1963 4878.77 1963C4932.1 1963 4978.77 1953 5018.77 1933C5060.1 1913 5092.1 1883.67 5114.77 1845C5137.43 1807.67 5148.77 1762.33 5148.77 1709V1461L5198.77 1521C5161.43 1586.33 5111.43 1635.67 5048.77 1669C4986.1 1702.33 4914.77 1719 4834.77 1719C4733.43 1719 4642.77 1695.67 4562.77 1649C4482.77 1602.33 4420.1 1538.33 4374.77 1457C4329.43 1375.67 4306.77 1284.33 4306.77 1183C4306.77 1080.33 4329.43 989 4374.77 909C4420.1 829 4482.1 766.333 4560.77 721C4639.43 674.333 4728.77 651 4828.77 651C4910.1 651 4981.43 668.333 5042.77 703C5105.43 736.333 5157.43 785 5198.77 849L5162.77 915V675H5410.77V1709C5410.77 1803.67 5387.43 1888.33 5340.77 1963C5295.43 2037.67 5232.77 2096.33 5152.77 2139C5074.1 2181.67 4982.77 2203 4878.77 2203ZM4866.77 1477C4922.77 1477 4971.43 1465 5012.77 1441C5055.43 1415.67 5088.77 1381 5112.77 1337C5136.77 1293 5148.77 1242.33 5148.77 1185C5148.77 1129 5136.1 1079 5110.77 1035C5086.77 989.667 5053.43 954.333 5010.77 929C4969.43 903.667 4921.43 891 4866.77 891C4812.1 891 4762.77 903.667 4718.77 929C4674.77 954.333 4640.1 989.667 4614.77 1035C4590.77 1079 4578.77 1129 4578.77 1185C4578.77 1241 4590.77 1291 4614.77 1335C4640.1 1379 4674.1 1413.67 4716.77 1439C4760.77 1464.33 4810.77 1477 4866.77 1477ZM6071.45 1787C5959.45 1787 5861.45 1761.67 5777.45 1711C5693.45 1660.33 5628.12 1591.67 5581.45 1505C5534.79 1418.33 5511.45 1322.33 5511.45 1217C5511.45 1107.67 5534.79 1011 5581.45 927C5629.45 841.667 5694.12 774.333 5775.45 725C5858.12 675.667 5950.12 651 6051.45 651C6136.79 651 6211.45 665 6275.45 693C6340.79 721 6396.12 759.667 6441.45 809C6486.79 858.333 6521.45 915 6545.45 979C6569.45 1041.67 6581.45 1109.67 6581.45 1183C6581.45 1201.67 6580.12 1221 6577.45 1241C6576.12 1261 6572.79 1278.33 6567.45 1293H5727.45V1093H6419.45L6295.45 1187C6307.45 1125.67 6304.12 1071 6285.45 1023C6268.12 975 6238.79 937 6197.45 909C6157.45 881 6108.79 867 6051.45 867C5996.79 867 5948.12 881 5905.45 909C5862.79 935.667 5830.12 975.667 5807.45 1029C5786.12 1081 5778.12 1144.33 5783.45 1219C5778.12 1285.67 5786.79 1345 5809.45 1397C5833.45 1447.67 5868.12 1487 5913.45 1515C5960.12 1543 6013.45 1557 6073.45 1557C6133.45 1557 6184.12 1544.33 6225.45 1519C6268.12 1493.67 6301.45 1459.67 6325.45 1417L6537.45 1521C6516.12 1573 6482.79 1619 6437.45 1659C6392.12 1699 6338.12 1730.33 6275.45 1753C6214.12 1775.67 6146.12 1787 6071.45 1787ZM7094.06 1787C6978.06 1787 6876.73 1759.67 6790.06 1705C6704.73 1649 6646.06 1573.67 6614.06 1479L6810.06 1385C6838.06 1446.33 6876.73 1494.33 6926.06 1529C6976.73 1563.67 7032.73 1581 7094.06 1581C7142.06 1581 7180.06 1570.33 7208.06 1549C7236.06 1527.67 7250.06 1499.67 7250.06 1465C7250.06 1443.67 7244.06 1426.33 7232.06 1413C7221.4 1398.33 7206.06 1386.33 7186.06 1377C7167.4 1366.33 7146.73 1357.67 7124.06 1351L6946.06 1301C6854.06 1274.33 6784.06 1233.67 6736.06 1179C6689.4 1124.33 6666.06 1059.67 6666.06 985C6666.06 918.333 6682.73 860.333 6716.06 811C6750.73 760.333 6798.06 721 6858.06 693C6919.4 665 6989.4 651 7068.06 651C7170.73 651 7261.4 675.667 7340.06 725C7418.73 774.333 7474.73 843.667 7508.06 933L7308.06 1027C7289.4 977.667 7258.06 938.333 7214.06 909C7170.06 879.667 7120.73 865 7066.06 865C7022.06 865 6987.4 875 6962.06 895C6936.73 915 6924.06 941 6924.06 973C6924.06 993 6929.4 1010.33 6940.06 1025C6950.73 1039.67 6965.4 1051.67 6984.06 1061C7004.06 1070.33 7026.73 1079 7052.06 1087L7226.06 1139C7315.4 1165.67 7384.06 1205.67 7432.06 1259C7481.4 1312.33 7506.06 1377.67 7506.06 1455C7506.06 1520.33 7488.73 1578.33 7454.06 1629C7419.4 1678.33 7371.4 1717 7310.06 1745C7248.73 1773 7176.73 1787 7094.06 1787Z" fill="white"/>
<rect x="1343" y="1446" width="20" height="361" rx="10" fill="#36C5EF"/>
</svg>
