<svg xmlns="http://www.w3.org/2000/svg" viewBox="0 0 320 320" fill="none"><path d="M212.083 80.0451L84.2083 60.0716L81.9167 71.6541L81 84.7068V98.2256L81.9167 110.812L82.8333 122L212.083 114.541L213 101.955V88.4361L212.083 80.0451Z" fill="#DF1E5A"/><path d="M144.688 133.09L240.594 119.05L242.312 127.192L243 136.367V145.87L242.312 154.717L240.938 166L144.688 163.009L144 148.491V138.989L144.688 133.09Z" fill="#E273C1"/><path d="M73.9062 212.896L75.2656 223L187.188 208.085L188.094 204.236L189 194.613V178.736L187.188 172H75.2656L73.9062 181.142L73 196.057L73.9062 212.896Z" fill="#21B159"/><path d="M116.452 254.603L117.356 261H245.74L248 241.353V229.931L247.548 217.138L246.192 208L220.877 212.112L117.356 227.647L116.452 232.433L116 241.353L116.452 254.603Z" fill="#36C5EF"/></svg>
